<svg width="32" height="32" viewBox="0 0 32 32" fill="none" xmlns="http://www.w3.org/2000/svg">
<path d="M30.8659 15.5863C30.8659 7.58047 24.3752 1.08984 16.3695 1.08984C8.36368 1.08984 1.87305 7.58047 1.87305 15.5863C1.87305 23.592 8.36368 30.0827 16.3695 30.0827C24.3752 30.0827 30.8659 23.592 30.8659 15.5863Z" stroke="#CDA274" stroke-width="2" stroke-miterlimit="10"/>
<path d="M30.1033 9.83048C28.9815 9.83751 29.0918 11.9193 27.6941 10.9371C27.1751 10.5731 26.8559 10.0441 26.2042 9.88318C25.6349 9.74266 25.0517 9.8888 24.4894 9.98646C23.8502 10.0975 23.0924 10.1474 22.6076 10.6343C22.1389 11.1029 21.8909 11.7317 21.3922 12.2032C20.4275 13.1165 20.0203 14.1135 20.6448 15.4049C21.2455 16.6464 22.5021 17.3202 23.8579 17.2316C25.19 17.1424 26.5737 16.3653 26.5353 18.3122C26.5213 19.0008 26.6645 19.4786 26.8748 20.1186C27.0697 20.7088 27.0564 21.2807 27.1011 21.8899C27.1835 23.0281 27.3917 24.304 27.9533 25.3094L29.001 23.8227C29.1303 23.6386 29.4006 23.3808 29.4648 23.1637C29.5787 22.7794 29.3545 22.1189 29.3286 21.6882C29.3028 21.2575 29.3154 20.8212 29.2497 20.3905C29.1575 19.787 28.8027 19.2214 28.7538 18.6249C28.6636 17.5141 28.8655 16.6274 28.0147 15.6986C27.1933 14.8028 25.9891 14.5878 24.8386 14.7697C24.2589 14.8611 21.9251 15.2363 22.8618 13.9034C23.047 13.6414 23.3704 13.4264 23.5785 13.177C23.7594 12.9599 23.9166 12.5608 24.1289 12.3915C24.3413 12.2221 25.3164 12.0275 25.5958 12.1139C25.8752 12.2003 26.1665 12.6057 26.4089 12.7856C26.8567 13.1249 27.3793 13.3505 27.9323 13.4432C28.8865 13.5838 30.8814 13.0259 30.866 11.7949C30.8632 11.2048 30.3184 10.3827 30.1033 9.83048ZM19.0585 19.9591C18.6862 18.3825 16.5564 17.8556 15.4081 17.0005C14.748 16.5087 14.1605 15.7492 13.2937 15.6873C12.8941 15.6585 12.5596 15.7457 12.1635 15.6424C11.8003 15.5482 11.5153 15.3515 11.1283 15.4028C10.4054 15.4983 9.94924 16.2754 9.1725 16.17C8.43557 16.0703 7.6763 15.2032 7.50865 14.4971C7.29351 13.5894 8.00739 13.295 8.77225 13.2142C9.09147 13.1805 9.44981 13.1439 9.75645 13.2613C10.1602 13.4123 10.3509 13.81 10.7134 14.0109C11.3931 14.3854 11.5307 13.7868 11.4266 13.1798C11.2708 12.2706 11.0892 11.8996 11.8953 11.2743C12.4541 10.8429 12.9319 10.531 12.8425 9.75601C12.7894 9.30072 12.5414 9.09486 12.7726 8.64169C12.9479 8.29671 13.4292 7.98546 13.7428 7.7796C14.5524 7.24843 17.2109 7.28778 16.1247 5.80108C15.8055 5.36477 15.2167 4.58488 14.6579 4.47809C13.9594 4.3453 13.6492 5.1294 13.1624 5.47508C12.6594 5.8327 11.6801 6.2388 11.1765 5.68585C10.499 4.9418 11.6257 4.6973 11.875 4.17808C12.1244 3.65886 11.2974 2.67733 10.8545 2.42861L8.77225 4.7774C8.71244 5.17075 8.73326 5.57226 8.83344 5.95722C8.93363 6.34218 9.11105 6.70245 9.35481 7.01587C9.76902 7.55196 10.4284 7.72409 10.4585 8.4562C10.4878 9.1588 10.3788 9.51853 9.922 10.0125C9.72432 10.2232 9.58462 10.5225 9.38345 10.72C9.13687 10.961 9.22838 10.8872 8.8435 10.9532C8.11985 11.0762 7.50376 11.2659 6.80456 11.4598C5.63945 11.7837 5.53188 9.86912 5.00101 9.11805L3.25474 10.5366C3.23588 10.7692 3.54113 11.197 3.62425 11.45C4.10133 12.8952 5.06388 14.013 5.68555 15.3958C6.34005 16.86 8.0975 16.4539 8.87354 17.7368C9.56226 18.875 8.82674 20.3161 9.34224 21.5077C9.71664 22.3726 10.5995 22.5616 11.2086 23.1939C11.831 23.8326 11.8177 24.7066 11.9127 25.5378C12.0199 26.5154 12.1937 27.4845 12.4331 28.4381C12.5177 28.7676 12.5952 29.2032 12.8194 29.4751C12.9731 29.662 13.5005 29.8229 13.2874 29.8847C13.585 29.9339 14.1151 30.2136 14.3631 30.0084C14.69 29.7386 14.6027 28.9081 14.6593 28.5329C14.829 27.4158 15.385 26.3233 16.1352 25.4872C16.8763 24.6623 17.892 24.1038 18.5178 23.1686C19.1276 22.2566 19.3113 21.0264 19.0585 19.9591ZM16.7262 21.8084C16.3071 22.5609 15.3738 23.0646 14.7738 23.6625C14.6111 23.8248 14.2646 24.3869 14.0607 24.2654C13.9147 24.1782 13.8651 23.4489 13.8113 23.2817C13.5338 22.4397 13.0041 21.7046 12.2948 21.1774C12.0762 21.0109 11.5342 20.7945 11.4091 20.5662C11.2694 20.3182 11.3951 19.7329 11.4 19.4631C11.4077 19.0696 11.2296 18.4155 11.326 18.0579C11.4378 17.6455 11.2226 17.8942 11.5893 17.8127C11.7828 17.7691 12.5819 17.9104 12.8229 17.9609C13.2057 18.041 13.4166 18.2806 13.7184 18.523C14.5119 19.1631 15.3857 19.6584 16.2749 20.1488C16.9637 20.5325 17.1662 21.0179 16.7262 21.8084ZM11.8645 2.44969C12.1956 2.77499 12.5072 3.16001 13.001 3.19233C13.4683 3.22395 13.9091 2.96961 14.317 3.28929C14.7696 3.64059 15.0958 4.08534 15.6966 4.19494C16.2777 4.30103 16.8931 3.95957 17.037 3.36166C17.1767 2.79185 16.8756 2.17216 16.8575 1.60025C16.8575 1.52085 16.9001 1.16815 16.8456 1.10843C16.8051 1.06346 16.467 1.11405 16.4153 1.11545C16.0367 1.1267 15.6591 1.15293 15.2823 1.19415C13.909 1.34367 12.5639 1.69029 11.2883 2.22345C11.458 2.34149 11.6711 2.38856 11.8645 2.44969ZM23.8747 6.39688C24.4677 6.39688 25.0698 6.1299 24.8784 5.43995C24.7178 4.86171 24.444 4.23429 23.7776 4.54624C23.3536 4.74437 22.7529 5.24884 22.7033 5.74909C22.6467 6.31679 23.4793 6.39688 23.8747 6.39688ZM23.4011 9.41595C24.0067 9.7806 24.905 9.60916 25.3618 9.08854C25.7187 8.68103 25.929 7.97351 26.5709 7.97422C26.8535 7.97363 27.125 8.08493 27.3267 8.28406C27.5921 8.56018 27.5398 8.81944 27.5963 9.16512C27.7228 9.94149 28.5505 9.20938 28.7663 8.90867C28.906 8.71265 29.0953 8.42177 29.0318 8.16673C28.9731 7.92855 28.6965 7.67491 28.5735 7.4564C28.2145 6.82406 27.919 6.08844 27.3812 5.57765C26.8636 5.08584 26.2273 5.14275 25.7362 5.65354C25.3339 6.07509 24.8666 6.40883 24.5914 6.92173C24.3972 7.28216 24.1785 7.45429 23.7853 7.54774C23.5687 7.59903 23.3215 7.618 23.1399 7.76414C22.6341 8.16462 22.9219 9.12648 23.4011 9.41595Z" fill="#CDA274"/>
</svg>
